<?xml version="1.0" encoding="UTF-8"?>
<svg width="600" height="555" version="1.1" xmlns="http://www.w3.org/2000/svg">
 <g fill="#004987">
  <path d="m121.79 511.62c16.99 0 29.326-12.83 29.326-28.474v-0.1572c0-15.647-12.185-28.305-29.163-28.305-16.987 0-29.329 12.815-29.329 28.462v0.15151c0 15.65 12.191 28.322 29.166 28.322m0.16377-11.178c-9.7502 0-16.669-7.8672-16.669-17.296v-0.1572c0-9.4348 6.7609-17.139 16.505-17.139 9.7531 0 16.672 7.8586 16.672 17.296v0.15152c0 9.4378-6.7639 17.145-16.508 17.145m36.163 5.0327c0 3.1411 2.4346 5.675 5.5786 5.675 2.5193 0 4.5686-1.4275 5.5845-3.795l3.8592-9.0321h24.212l3.6957 8.6408c1.0977 2.5164 2.9863 4.1862 5.8209 4.1862 3.217 0 5.7334-2.6098 5.7334-5.8326 0-0.7853-0.23335-1.5735-0.62475-2.4434l-19.188-43.318c-1.337-2.9834-3.6928-4.7962-6.9974-4.7962h-0.70915c-3.3016 0-5.7363 1.8128-7.0762 4.7962l-19.179 43.318c-0.39389 0.86995-0.70916 1.734-0.70916 2.601m19.503-17.845 7.622-18.166 7.625 18.166zm71.699-1.5734c1.2582-1.3428 1.8099-2.7587 1.8099-4.1716 0-1.413-0.63057-2.6741-1.8099-4.0081l-10.541-11.636h21.637c2.9776 0 5.3334-2.2799 5.3334-5.2692 0-2.9834-2.3558-5.3451-5.3334-5.3451h-33.898c-2.9075 0-5.2633 2.4346-5.2633 5.3451v0.24245c0 2.1193 0.70089 4.0023 2.1982 5.6516l14.31 15.644-15.411 16.911c-1.4888 1.5764-2.204 3.5381-2.204 5.6633v0.23336c0 2.9104 2.4434 5.3451 5.3509 5.3451h35.693c2.9134 0 5.345-2.4347 5.345-5.3451 0-2.9075-2.4317-5.4268-5.345-5.4268h-24.527zm23.514 19.419c0 3.1411 2.4346 5.675 5.5757 5.675 2.5164 0 4.5627-1.4274 5.5815-3.795l3.8563-9.032h24.218l3.6928 8.6409c1.1035 2.5164 2.9834 4.1861 5.818 4.1861 3.2227 0 5.7362-2.6098 5.7362-5.8326 0-0.7853-0.23335-1.5734-0.62723-2.4434l-19.182-43.318c-1.3399-2.9834-3.6957-4.7962-7.0032-4.7962h-0.70088c-3.2987 0-5.7392 1.8128-7.079 4.7962l-19.185 43.318c-0.39387 0.86995-0.70087 1.734-0.70087 2.601m19.492-17.845 7.625-18.166 7.6338 18.166zm64.319 17.845c0 3.1411 2.4317 5.675 5.5728 5.675 2.5222 0 4.5686-1.4274 5.5845-3.795l3.8563-9.032h24.218l3.6958 8.6409c1.1005 2.5164 2.9892 4.1861 5.8122 4.1861 3.2257 0 5.7392-2.6098 5.7392-5.8326 0-0.7853-0.23336-1.5734-0.62807-2.4434l-19.185-43.318c-1.3341-2.9834-3.6958-4.7962-6.9974-4.7962h-0.70091c-3.3045 0-5.7479 1.8128-7.0849 4.7962l-19.182 43.318c-0.3881 0.86995-0.7009 1.734-0.7009 2.601m19.495-17.845 7.625-18.166 7.6308 18.166zm42.297 16.669v0.1515c0 3.7775 2.9104 6.6996 6.8426 6.6996s6.8426-2.9221 6.8426-6.6996v-0.1515c0-3.7803-2.9105-6.685-6.8426-6.685-3.9322 0-6.8426 2.9047-6.8426 6.685m30.754 6.3639h30.891c2.9834 0 5.4268-2.3617 5.4268-5.3451s-2.4434-5.4268-5.4268-5.4268h-24.927v-11.563h21.001c2.9776 0 5.421-2.3558 5.421-5.3392 0-2.9893-2.4434-5.4239-5.421-5.4239h-21.001v-11.172h24.533c2.9863 0 5.4239-2.3529 5.4239-5.3393 0-2.9921-2.4375-5.4268-5.4239-5.4268h-30.497c-3.3863 0-6.0661 2.6741-6.0661 6.0544v42.927c0 3.3863 2.6798 6.0544 6.0661 6.0544m44.419-6.3639v0.1515c0 3.7775 2.9046 6.6996 6.8339 6.6996 3.935 0 6.8368-2.9221 6.8368-6.6996v-0.1515c0-3.7803-2.9018-6.685-6.8368-6.685-3.9293 0-6.8339 2.9047-6.8339 6.685"/>
  <path d="m311.12 186.46c-5.8851 2.601-12.284 3.9088-19.13 3.9088-6.8456 0-13.25-1.3078-19.144-3.9088-5.8997-2.6156-11.049-6.107-15.428-10.503-0.88164-0.86701-1.6873-1.8012-2.4872-2.7353-2.8812-3.5147-5.2808-7.4323-7.1929-11.759-2.6069-5.891-3.9117-12.269-3.9117-19.133s1.3049-13.233 3.9117-19.144c1.9062-4.3175 4.303-8.2118 7.1667-11.726 0.75055-0.80275 1.4858-1.6202 2.3004-2.3821 4.5335-4.2416 9.8115-7.6191 15.857-10.098 6.0224-2.4609 12.757-3.7045 20.166-3.7045 6.574 0 12.687 1.2436 18.324 3.7045 5.6136 2.4784 10.62 5.9143 15.011 10.296 0.22757 0.24519 0.43525 0.49045 0.65701 0.72397 3.2579 3.9585 5.9494 8.4161 7.9899 13.399 2.4639 6.0399 3.6929 12.757 3.6929 20.169 0 6.5741-1.229 12.693-3.6929 18.303-2.4726 5.6341-5.9027 10.641-10.293 15.022-2.9981 3.0039-6.2997 5.529-9.8787 7.6162-1.2698 0.68897-2.5718 1.3516-3.9175 1.95m95.578-91.582v-51.48h-101.1c-1.8946 0-3.7542 0.0153-5.5524 0.0497-2.6477-0.20427-5.7596 0.10509-8.4715 0.10509-13.717 0-26.541 2.531-38.472 7.6133-11.945 5.0736-22.387 12.077-31.285 20.986-8.9328 8.9123-15.927 19.413-20.995 31.492-5.0795 12.068-7.6046 24.974-7.6046 38.685v0.28025c0 13.735 2.5251 26.562 7.6046 38.487 5.0765 11.937 12.08 22.367 20.995 31.282 2.9834 2.9951 6.1538 5.7363 9.4817 8.2847 0.35583 0.27439 0.70089 0.56046 1.0509 0.82319 0.26812 0.20143 0.54615 0.38536 0.81427 0.57801 5.9493 4.3847 12.453 8.1358 19.506 11.219 11.942 5.2079 24.767 7.8264 38.49 7.8264 3.614 0 7.1317-0.22185 10.568-0.56924 0.22757-0.0232 0.44933-0.0405 0.67772-0.0554 0.93117-0.10794 1.8566-0.21303 2.7937-0.34448 8.8306-1.121 17.255-3.3542 25.272-6.7755 3.0477-1.2961 5.9961-2.7003 8.8452-4.2504v15.203h51.399v-88.814c0-1.0538-0.0175-2.0726-0.0248-3.109 0.2772-3.0769 0.0878-6.1917 0.0878-9.3649 0-8.7722-1.0305-17.086-3.1002-24.898-0.61564-2.3616-1.4742-4.7058-2.531-7.047-1.7544-5.3568-4.1219-10.754-7.1228-16.207z"/>
  <path d="m548.17 356.23c-0.31281 1.0072-1.3924 1.7779-2.5689 1.7779-1.3983 0-2.496-0.99837-2.496-2.4872 0-0.1456 0-0.37402 0.0935-0.70088 0.46422-2.0172 0.6893-3.576 0.6893-5.0444 0-2.8842-2.5661-4.516-6.5303-5.3714-11.35-2.3354-19.772-7.5491-19.772-20.537 0-11.283 9.1926-19.524 20.542-19.524 6.7055 0 11.21 2.5719 14.792 5.8297 0.46672 0.39387 0.9283 1.1764 0.9283 2.1047 0 1.6347-1.3165 2.8754-2.887 2.8754-0.77039 0-1.4655-0.29788-1.9384-0.69509-2.8754-2.6564-6.1391-4.8225-10.973-4.8225-8.0745 0-14.301 5.9085-14.301 14.231 0 10.188 6.758 13.531 16.71 15.872 6.1595 1.3983 9.1168 3.9672 9.1168 8.6263 0 2.4171-0.46422 4.8984-1.4042 7.8644m-50.491-34.149c1.4012 0 2.4083 0.84952 2.4083 2.169 0 1.2464-1.0071 2.3441-2.4083 2.3441h-6.8368c-6.3084 0-11.046 2.4784-11.046 7.3068 0 5.6895 5.8239 7.4732 12.675 7.4732 5.2079 0 9.7297-1.8771 13.148-4.5978 0.38232-0.30619 1.0013-0.77371 1.7748-0.77371 1.4947 0 2.5047 1.1648 2.5047 2.5719 0 0.68598-0.31527 1.4684-0.7737 1.8538-4.1307 3.5088-9.7298 5.9931-16.818 5.9931-11.038 0-18.651-3.2666-18.651-11.975 0-5.3743 4.7408-9.0991 10.337-10.267v-0.15807c-5.5962-1.0071-8.6408-4.6707-8.6408-8.5503 0-7.9373 8.5562-11.131 17.197-11.131 7.0732 0 11.665 1.9471 15.402 4.6649 0.46672 0.3881 1.0101 1.1005 1.0101 2.0172 0 1.6406-1.3283 2.7324-2.7295 2.7324-0.7737 0-1.3925-0.38809-1.8566-0.7795-3.1936-2.2537-6.7726-3.5819-11.975-3.5819-5.4502 0-10.827 1.6289-10.827 6.6908 0 3.2666 3.3512 5.9961 9.6509 5.9961zm-39.75-23.72c0-0.38562 0.15808-0.8553 0.3914-1.1706l4.662-7.0762c0.7853-1.1619 1.6435-1.7924 2.8024-1.7924 1.8713 0 4.2124 1.2466 4.2124 2.3383 0 0.60986-0.48159 1.1589-1.1005 1.7895l-5.8326 5.5261c-1.2553 1.2348-2.1807 1.4684-3.6636 1.4684-0.84364 0-1.4713-0.46422-1.4713-1.0831m-1.7077 9.4817c0-1.626 1.3253-3.0302 2.96-3.0302 1.7019 0 3.0243 1.3224 3.0243 3.0302v34.931c0 1.7048-1.2465 3.033-2.963 3.033-1.696 0-3.0213-1.3282-3.0213-3.033zm-29.802 38.188h-0.31777c-1.6348 0-2.7354-1.0013-3.4242-2.5572l-15.092-34.076c-0.16049-0.53703-0.38563-1.0889-0.38563-1.6318 0-1.556 1.3253-2.9572 3.0272-2.9572 1.7223 0 2.4989 1.013 3.0447 2.3354l12.99 31.434 13.212-31.589c0.46672-1.1677 1.2523-2.1807 2.8083-2.1807 1.6289 0 2.9601 1.3253 2.9601 2.9572 0 0.54284-0.16376 1.0947-0.31279 1.4829l-15.177 34.225c-0.69508 1.5559-1.7019 2.5573-3.3337 2.5573m-55.469-26.83c0-1.6406 1.3253-2.9601 2.9571-2.9601 1.6319 0 2.9513 1.3195 2.9513 2.9601v10.188c0 8.4016 4.2037 11.668 8.8715 11.668 6.3727 0 9.724-5.1378 9.724-14.552 0-6.3726-2.5718-14.619-10.03-16.558-1.1035-0.30616-1.877-1.3371-1.877-2.496 0-1.5559 1.1706-2.7937 2.6477-2.7937h0.54284c8.7168 1.7019 14.865 9.7998 14.865 21.693 0 12.915-6.1479 20-15.638 20-3.9644 0-9.1869-1.6406-12.056-8.7138-2.8024 7.1492-8.1737 8.7138-12.132 8.7138-9.8028 0-15.559-7.0849-15.559-20 0-11.811 6.3026-19.991 14.777-21.693h0.46091c1.5559 0 2.7937 1.2378 2.7937 2.7937 0 1.2436-0.9195 2.2537-2.0902 2.5631-7.3184 1.7837-9.794 10.036-9.794 16.491 0 9.4145 3.3396 14.552 9.6393 14.552 4.7408 0 8.9474-3.182 8.9474-11.668zm-49.18 26.83h-0.3095c-1.6289 0-2.7265-1.0013-3.4155-2.5572l-15.098-34.076c-0.1572-0.53703-0.3881-1.0889-0.3881-1.6318 0-1.556 1.3195-2.9572 3.0302-2.9572 1.7136 0 2.4989 1.013 3.036 2.3354l12.993 31.434 13.224-31.589c0.46424-1.1677 1.2436-2.1807 2.8025-2.1807 1.6231 0 2.9484 1.3253 2.9484 2.9572 0 0.54284-0.1515 1.0947-0.3128 1.4829l-15.157 34.225c-0.70917 1.5559-1.7195 2.5573-3.3542 2.5573m-36.089-38.19c0-1.6319 1.3253-3.0302 2.963-3.0302 1.7078 0 3.0185 1.3254 3.0185 3.0302v34.931c0 1.7048-1.2436 3.033-2.9426 3.033-1.7136 0-3.0389-1.3282-3.0389-3.033zm-17.52 17.66v-0.15479c0-8.635-6.4427-15.708-14.929-15.708-8.7081 0-14.695 7.0732-14.695 15.565v0.14319c0 8.6438 6.3814 15.641 14.862 15.641 8.7081 0 14.762-6.9974 14.762-15.486m-35.775 0v-0.15479c0-11.353 8.8744-21.007 21.012-21.007 12.059 0 20.916 9.4962 20.916 20.864v0.14319c0 11.353-8.9416 21.007-21.083 21.007-12.051 0-20.846-9.4962-20.846-20.852m-39.684-17.661c0-1.6319 1.3341-3.0302 2.9689-3.0302 1.7106 0 3.0242 1.3983 3.0242 3.0302v20.303l21.795-22.166c0.6951-0.77371 1.3925-1.1678 2.3296-1.1678 1.6289 0 2.7207 1.3254 2.7207 2.7967 0 0.93994-0.39389 1.5617-1.1589 2.3382l-13.166 12.912 14.4 18.131c0.54034 0.69179 0.77369 1.2348 0.77369 2.0143 0 1.6435-1.2436 2.8024-2.8755 2.8024-1.083 0-1.7923-0.39141-2.5718-1.4012l-13.922-17.571-8.3256 8.238v7.7009c0 1.7048-1.2407 3.033-2.9484 3.033-1.7107 0-3.0447-1.3282-3.0447-3.033zm-26.52 47.38c0 1.7107-1.4012 3.0331-3.0418 3.0331-1.6961 0-2.9455-1.3224-2.9455-3.0331v-9.9604l-15.799-35.857c-0.15479-0.54281-0.39389-1.0889-0.39389-1.6377 0-1.5618 1.3312-2.963 3.0419-2.963 1.7194 0 2.4901 1.0158 3.0389 2.347l13.142 31.72 13.064-31.887c0.46422-1.1648 1.2465-2.1806 2.8054-2.1806 1.6289 0 2.9513 1.3312 2.9513 2.963 0 0.54862-0.16048 1.0947-0.29458 1.4771l-15.568 36.017zm-31.9-26.44c0 9.794-5.1232 17.574-17.261 17.574s-17.282-7.622-17.282-17.504v-20.995c0-1.7194 1.2494-3.0477 2.966-3.0477 1.6289 0 3.033 1.3283 3.033 3.0477v19.912c0 7.7768 3.255 13.215 11.283 13.215 7.9198 0 11.353-5.4385 11.353-13.215v-19.912c0-1.7194 1.2466-3.0477 2.9542-3.0477 1.6289 0 2.9542 1.3283 2.9542 3.0477zm-52.74-3.35c0-8.4044-5.6778-15.098-14.549-15.098-9.0232 0-14.774 6.6208-14.774 15.168 0 8.4862 6.069 15.484 14.929 15.484 9.0961 0 14.395-7.0791 14.395-15.554m5.9173-20.23c1.3925 0 2.5542 1.1764 2.5542 2.566 0 1.4041-1.1617 2.566-2.5542 2.566h-9.4992c6.2998 2.5689 9.8029 8.6292 9.8029 15.253 0 11.192-8.168 20.767-20.694 20.767-12.293 0-21.001-9.4115-21.001-20.767 0-11.28 8.4771-20.385 21.08-20.385z"/>
  <path d="m426.23 425.58h-0.62477c-3.1848 0-5.3627-2.0231-6.6851-5.1349l-12.763-29.472c-0.31281-0.79108-0.63055-1.7895-0.63055-2.8842 0-2.8025 2.5748-5.529 5.7684-5.529 3.1849 0 4.8984 1.7953 5.7537 4.2008l8.9446 24.186 9.0991-24.338c0.7853-2.0288 2.4171-4.0489 5.5232-4.0489 3.1119 0 5.6866 2.4112 5.6866 5.6048 0 1.0188-0.38809 2.2478-0.63054 2.8084l-12.742 29.472c-1.334 3.0272-3.5206 5.1349-6.6996 5.1349m-57.35-48.7c0-0.69509 0.3972-1.4713 0.7853-2.0902l4.2853-6.6938c1.013-1.6377 2.4843-2.6418 4.4256-2.6418 2.8754 0 6.6149 1.7866 6.6149 3.576 0 1.0977-0.62808 1.9471-1.5588 2.8025l-4.8254 4.5102c-2.2478 2.1047-4.122 2.566-6.7639 2.566-1.7165 0-2.963-0.77371-2.963-2.0289m3.6607 19.135c3.1149 0 5.6808 2.566 5.6808 5.6837v5.9289c0 5.1991 1.6289 7.8381 5.8297 7.8381 4.2066 0 6.3668-3.9614 6.3668-10.337 0-2.9601-0.22507-10.2-6.5974-12.293-2.0202-0.69759-3.4214-2.5689-3.4214-4.8255 0-2.8784 2.2566-5.2108 5.1349-5.2108 10.97 0 16.564 11.668 16.564 22.166 0 12.915-7.0003 20.694-17.107 20.694-4.2096 0-9.4875-1.2406-12.45-7.5491-2.9455 6.3902-8.3197 7.5491-12.518 7.5491-10.112 0-17.039-7.7798-17.039-20.694 0-10.573 5.6049-22.166 16.491-22.166 2.8871 0 5.2137 2.3324 5.2137 5.2108 0 2.2566-1.48 4.2825-3.4184 4.8255-6.542 1.9384-6.615 9.3327-6.615 12.293 0 6.3756 2.1748 10.337 6.3727 10.337 4.2037 0 5.8326-2.639 5.8326-7.8381v-5.9289c0-3.1177 2.566-5.6837 5.6808-5.6837m-53.062 29.565h-0.61896c-3.1906 0-5.3685-2.0231-6.6909-5.1349l-12.754-29.472c-0.31777-0.79108-0.63304-1.7895-0.63304-2.8842 0-2.8025 2.5689-5.529 5.7713-5.529 3.1848 0 4.9013 1.7953 5.745 4.2008l8.9474 24.186 9.0992-24.338c0.78197-2.0288 2.4142-4.0489 5.5231-4.0489 3.1061 0 5.6867 2.4112 5.6867 5.6048 0 1.0188-0.38809 2.2478-0.62144 2.8084l-12.763 29.472c-1.3253 3.0272-3.4972 5.1349-6.6909 5.1349m-64.02-37.11c0-3.2637 2.6361-5.9143 5.9114-5.9143 3.2695 0 5.9056 2.6506 5.9056 5.9143v0.46422c2.7265-3.5031 6.2325-6.688 12.217-6.688 8.9445 0 14.161 5.9143 14.161 15.478v33.997c0 3.2608-2.639 5.9085-5.9202 5.9085-3.2578 0-5.9144-2.6477-5.9144-5.9085v-30.266c0-5.5903-2.636-8.4744-7.152-8.4744-4.5014 0-7.3914 2.8842-7.3914 8.4744v17.816c0 3.2783-2.6361 5.9202-5.9056 5.9202-3.2754 0-5.9114-2.6419-5.9114-5.9202zm-30.82-11.5c-5.6048 0-9.6334 5.7567-9.6334 14.313h19.281c0-8.5562-4.0431-14.313-9.648-14.313m0.15721 38.966c6.0749 0 9.7268-6.0632 9.7268-15.708h-19.678c0 9.645 4.0344 15.708 9.9516 15.708m-0.15721 9.7211c-14.459 0-21.319-12.672-21.319-28.62v-0.55442c0-16.012 7.0207-29.084 21.477-29.084 14.619 0 21.386 12.993 21.386 28.865v0.46092c0 15.878-6.9944 28.932-21.544 28.932m-41.13-18.677c-0.58089 1.2348-1.3399 2.3382-2.2711 3.3104-0.93415 0.96336-2.0405 1.7165-3.3075 2.2595-1.264 0.53704-2.6126 0.81177-4.0635 0.81177-1.3925 0-2.7266-0.27473-3.9877-0.81177-1.2698-0.54284-2.3646-1.2961-3.3016-2.2595-0.93997-0.97214-1.7048-2.0961-2.2683-3.3922-0.566-1.2961-0.86116-2.7032-0.86116-4.2182 0-1.5064 0.29459-2.9104 0.86116-4.1979 0.56353-1.3078 1.3283-2.4433 2.2683-3.398 0.93704-0.97503 2.0552-1.7399 3.3484-2.3208 1.2932-0.56933 2.6681-0.8524 4.119-0.8524 1.3837 0 2.712 0.26893 3.9847 0.81424 1.2669 0.54285 2.3558 1.3078 3.2987 2.3149 0.93995 0.99546 1.6785 2.1515 2.2186 3.4768 0.53124 1.3341 0.82005 2.817 0.82005 4.4518 0 1.4275-0.29459 2.7674-0.85827 4.011m11.449-9.2744c-0.43525-2.0493-1.2465-4.1336-2.4492-6.2471-1.9442-3.255-4.5657-5.8238-7.8732-7.6951-3.325-1.8711-6.9097-2.8083-10.769-2.8083-3.0184 0-5.8502 0.56023-8.4716 1.6786-2.6332 1.1122-4.9219 2.6535-6.8836 4.6212-1.9559 1.9588-3.4943 4.2621-4.6094 6.9244-1.1151 2.6535-1.6727 5.491-1.6727 8.5008 0 3.0126 0.55773 5.8325 1.6727 8.4686 1.1151 2.6214 2.6477 4.913 4.5598 6.8776 1.9267 1.9588 4.2212 3.5059 6.8485 4.6619 2.6214 1.1502 5.4384 1.7137 8.4569 1.7137 2.0026 0 3.833-0.21928 5.529-0.67688 1.6844-0.45264 3.4097-1.4363 5.1495-2.9339l0.25404-0.0248c0.46422 2.5894 2.6244 4.6037 5.348 4.6037 2.9806 0 5.3656-2.3646 5.4881-5.31h0.0414v-14.488c0-3.2024-0.20689-5.8209-0.62144-7.8673"/>
 </g>
</svg>
